# xmcd CD database file
#
# Track frame offsets:
#	150
#	13538
#	30187
#	42114
#	52614
#	69000
#	82537
#	96037
#	108863
#	127238
#	143139
#	159863
#	172949
#	190575
#
# Disc length: 2727 seconds
#
# Revision: 0
# Processed by: cddbd v1.5PL3 Copyright (c) Steve Scherf et al.
# Submitted via: CDex 1.51
#
DISCID=8d0aa50e
DTITLE=Route 96 - Country Music 1st
DYEAR=1997
DGENRE=Country
TTITLE0=Nothin' I Can Do About It
TTITLE1=Blue Eyes Crying In The Rain
TTITLE2=Folsom Prison Blues
TTITLE3=Oh, Lonesome Me
TTITLE4=Afraid
TTITLE5=It Keeps Raining
TTITLE6=Gö, Du Bleibst Heut' Nacht Bei Mir
TTITLE7=Golden Slippers
TTITLE8=Green Green Grass Of Home
TTITLE9=Raunchy
TTITLE10=Jambalaya
TTITLE11=Good Hearted Woman
TTITLE12=Help Me Make It Through The Night
TTITLE13=The Party's Over
EXTD=YEAR: 1997
EXTT0=
EXTT1=
EXTT2=
EXTT3=
EXTT4=
EXTT5=
EXTT6=
EXTT7=
EXTT8=
EXTT9=
EXTT10=
EXTT11=
EXTT12=
EXTT13=
PLAYORDER=
